<?xml version="1.0"?>
<svg xmlns="http://www.w3.org/2000/svg" xmlns:xlink="http://www.w3.org/1999/xlink" version="1.1" id="Capa_1" x="0px" y="0px" width="512px" height="512px" viewBox="0 0 612 612" style="enable-background:new 0 0 612 612;" xml:space="preserve"><g><g>
	<g>
		<path d="M603.928,282.39l-45.767-45.818c-6.279-6.254-13.458-9.253-21.537-9.253c-7.179,0-13.184,2.361-18.244,7.466    l-36.195,36.501L334.419,418.439c-2.1,2.105-3.439,4.85-4.186,7.529l-24.53,86.723c-1.799,6.381-0.899,11.678,3.586,16.145    c3.293,3.318,7.18,4.785,11.666,4.785c1.199,0,3.886-0.574,5.085-0.574l86.148-25.141c3.293-0.576,5.985-2.107,7.479-4.213    l147.766-147.152l35.896-36.82c5.021-5.105,8.078-11.041,8.672-17.613C612,294.323,609.307,287.75,603.928,282.39z     M399.323,477.402l-54.438,15.826l15.851-54.434L493.244,306.32l39.188,38.543L399.323,477.402z M555.768,321.57l-39.188-38.606    l20.638-20.675l38.587,38.607L555.768,321.57z" data-original="#000000" class="active-path" data-old_color="#000000" fill="#FFFFFF"/>
		<path d="M264.123,401.4c3.254,3.318,7.179,4.787,11.665,4.787h0.6c5.086,0,9.017-1.469,12.265-4.787l230.32-235.98v39.181h32.909    v-89.466c0-20.292-15.558-36.756-35.896-36.756H36.195c-10.172,0-18.844,3.574-25.723,10.721C3.586,96.311,0,104.989,0,115.135    v382.304c0,9.891,3.516,18.635,10.472,25.717c6.803,6.955,15.558,10.465,25.723,10.465h251.258v-33.182H36.195    c-2.093,0-2.993-0.895-2.993-3V165.42L264.123,401.4z M33.202,115.135c0-2.361,0.899-3.573,2.993-3.573H515.98    c2.093,0,2.992,1.212,2.992,3.573v3L276.388,366.432L33.202,118.135V115.135z" data-original="#000000" class="active-path" data-old_color="#000000" fill="#FFFFFF"/>
	</g>
</g></g> </svg>
