<svg width="24" height="24" viewBox="0 0 24 24" fill="none" xmlns="http://www.w3.org/2000/svg">
<path d="M22.1219 7.71191C20.962 5.00774 18.991 3.04108 16.2642 1.87813C14.9014 1.29689 13.4736 1 11.9819 1C10.4905 1 9.07325 1.29409 7.71191 1.87813C5.00774 3.03798 3.02799 5.00339 1.86605 7.71191C1.28381 9.06886 1 10.4905 1 11.9819C1 13.4736 1.28381 14.907 1.86605 16.2642C3.02799 18.9727 5.00799 20.9499 7.71191 22.1101C9.0735 22.6941 10.4905 22.9879 11.9819 22.9879C13.4734 22.9879 14.9014 22.691 16.264 22.1101C18.9908 20.9471 20.9618 18.9681 22.1219 16.2642C22.7059 14.9026 23 13.4736 23 11.9819C23 10.4905 22.7062 9.07346 22.1219 7.71191ZM20.3659 16.8416C19.5024 18.3225 18.3194 19.4973 16.8295 20.3659C15.3487 21.2294 13.7261 21.6649 11.9822 21.6649C10.6712 21.6649 9.42018 21.4124 8.22923 20.895C7.03832 20.378 6.01007 19.6982 5.14991 18.8383C4.28976 17.9781 3.60513 16.9399 3.0932 15.7469C2.58278 14.5583 2.33542 13.2932 2.33542 11.9819C2.33542 10.2377 2.76395 8.6234 3.6226 7.14663C4.4843 5.66447 5.66752 4.4884 7.14688 3.62231C8.62598 2.75626 10.238 2.32309 11.9819 2.32309C13.7261 2.32309 15.3484 2.75881 16.8293 3.62231C18.3192 4.49095 19.4996 5.66698 20.3656 7.14659C21.2317 8.62595 21.6646 10.2377 21.6646 11.9819C21.6646 13.7261 21.2345 15.3514 20.3659 16.8416Z" fill="#278CE1"/>
<path d="M12.6796 11.8857V5.65491C12.6796 5.28206 12.3547 4.98132 11.9819 4.98132C11.6331 4.98132 11.3203 5.28206 11.3203 5.65491V11.9819C11.3203 11.994 11.3444 12.0422 11.3444 12.0782C11.3203 12.2947 11.3806 12.4751 11.5249 12.6196L15.1215 16.216C15.3622 16.4567 15.8072 16.4567 16.0477 16.216C16.3242 15.9394 16.306 15.5381 16.0477 15.2778L12.6796 11.8857Z" fill="#278CE1"/>
</svg>
